<?xml version="1.0" encoding="UTF-8" standalone="no"?>
<!-- Generator: Adobe Illustrator 16.0.0, SVG Export Plug-In . SVG Version: 6.00 Build 0)  -->

<svg
   version="1.1"
   id="Capa_1"
   x="0px"
   y="0px"
   width="612.043px"
   height="612.043px"
   viewBox="0 0 612.043 612.043"
   style="enable-background:new 0 0 612.043 612.043;"
   xml:space="preserve"
   sodipodi:docname="close_white.svg"
   inkscape:version="1.2 (dc2aedaf03, 2022-05-15)"
   xmlns:inkscape="http://www.inkscape.org/namespaces/inkscape"
   xmlns:sodipodi="http://sodipodi.sourceforge.net/DTD/sodipodi-0.dtd"
   xmlns="http://www.w3.org/2000/svg"
   xmlns:svg="http://www.w3.org/2000/svg"><defs
   id="defs42" /><sodipodi:namedview
   id="namedview40"
   pagecolor="#ffffff"
   bordercolor="#000000"
   borderopacity="0.25"
   inkscape:showpageshadow="2"
   inkscape:pageopacity="0.0"
   inkscape:pagecheckerboard="0"
   inkscape:deskcolor="#d1d1d1"
   showgrid="false"
   inkscape:zoom="0.3855938"
   inkscape:cx="306.02151"
   inkscape:cy="306.02151"
   inkscape:window-width="1280"
   inkscape:window-height="961"
   inkscape:window-x="-8"
   inkscape:window-y="-8"
   inkscape:window-maximized="1"
   inkscape:current-layer="Capa_1" />
<g
   id="g7"
   style="fill:#ffffff">
	<g
   id="cross"
   style="fill:#ffffff">
		<g
   id="g4"
   style="fill:#ffffff">
			<path
   d="M397.503,306.011l195.577-195.577c25.27-25.269,25.27-66.213,0-91.482c-25.269-25.269-66.213-25.269-91.481,0     L306.022,214.551L110.445,18.974c-25.269-25.269-66.213-25.269-91.482,0s-25.269,66.213,0,91.482L214.54,306.033L18.963,501.61     c-25.269,25.269-25.269,66.213,0,91.481c25.269,25.27,66.213,25.27,91.482,0l195.577-195.576l195.577,195.576     c25.269,25.27,66.213,25.27,91.481,0c25.27-25.269,25.27-66.213,0-91.481L397.503,306.011z"
   id="path2"
   style="fill:#ffffff" />
		</g>
	</g>
</g>
<g
   id="g9">
</g>
<g
   id="g11">
</g>
<g
   id="g13">
</g>
<g
   id="g15">
</g>
<g
   id="g17">
</g>
<g
   id="g19">
</g>
<g
   id="g21">
</g>
<g
   id="g23">
</g>
<g
   id="g25">
</g>
<g
   id="g27">
</g>
<g
   id="g29">
</g>
<g
   id="g31">
</g>
<g
   id="g33">
</g>
<g
   id="g35">
</g>
<g
   id="g37">
</g>
</svg>
