<?xml version="1.0" encoding="UTF-8" standalone="no"?>
<svg
   version="1.0"
   width="128px"
   height="128px"
   viewBox="0 0 128.000000 128.000000"
   preserveAspectRatio="xMidYMid meet"
   id="svg8"
   sodipodi:docname="slider-arrow.svg"
   inkscape:version="1.2 (dc2aedaf03, 2022-05-15)"
   xmlns:inkscape="http://www.inkscape.org/namespaces/inkscape"
   xmlns:sodipodi="http://sodipodi.sourceforge.net/DTD/sodipodi-0.dtd"
   xmlns="http://www.w3.org/2000/svg"
   xmlns:svg="http://www.w3.org/2000/svg">
  <defs
     id="defs12" />
  <sodipodi:namedview
     id="namedview10"
     pagecolor="#ffffff"
     bordercolor="#000000"
     borderopacity="0.25"
     inkscape:showpageshadow="2"
     inkscape:pageopacity="0.0"
     inkscape:pagecheckerboard="0"
     inkscape:deskcolor="#d1d1d1"
     inkscape:document-units="pt"
     showgrid="false"
     inkscape:zoom="2.765625"
     inkscape:cx="113.89831"
     inkscape:cy="97.988701"
     inkscape:window-width="1280"
     inkscape:window-height="961"
     inkscape:window-x="-8"
     inkscape:window-y="-8"
     inkscape:window-maximized="1"
     inkscape:current-layer="svg8" />
  <g
     id="g6"
     style="fill:#666666"
     transform="matrix(0.11090136,0,0,0.11090136,-6.8283348,-6.9304475)">
    <path
       d="m 514.00001,1206.005 c -108,-24.9872 -191,-72.9627 -280,-160.9177 C 143,955.13323 98.999999,877.17305 74.999999,762.23177 46.999998,633.29763 62.999999,505.36298 121,383.42528 165,289.47328 288,167.53556 384.00001,121.55905 704.00002,-31.362835 1073,123.55802 1191,460.38596 c 33.0001,94.9515 33.0001,256.86879 0,356.81773 -56.9999,173.91116 -195.99998,313.83961 -370.99998,372.80951 -83,27.9857 -222.00001,34.9822 -306.00001,15.9918 z m 245.00001,-60.9688 C 947.00003,1100.0591 1100.0001,947.13731 1145,758.23381 1210.0001,481.37524 1035,201.51821 758.00002,135.5519 387.00001,48.596319 47.999998,387.42324 135,758.23381 201,1037.0913 481.00001,1210.003 759.00002,1145.0362 Z"
       id="path2"
       style="fill:#666666;stroke-width:0.999744" />
    <path
       d="m 493,738 c -46,-46 -83,-90 -83,-99 0,-20 166,-182 182,-177 6,2 16,12 22,21 9,14 1,27 -44,72 l -54,54 165,3 164,3 v 25 25 l -164,3 -163,3 51,54 c 54,57 62,88 26,93 -14,2 -46,-23 -102,-80 z"
       id="path4"
       style="fill:#666666" />
  </g>
</svg>
